<svg xmlns="http://www.w3.org/2000/svg" xmlns:xlink="http://www.w3.org/1999/xlink" width="1200" height="1610" viewBox="0 0 1200 1610">
  <defs>
    <linearGradient id="headerGrad" x1="0%" y1="0%" x2="100%" y2="100%">
      <stop offset="0%" style="stop-color:#f6f8fa;stop-opacity:1"/>
      <stop offset="100%" style="stop-color:#fff;stop-opacity:1"/>
    </linearGradient>
  </defs>
  <style>
    .bg { fill:#fff; }.table-header-bg { fill:#f6f8fa; }
    .title { font:bold 28px Inter,Arial,sans-serif;fill:#24292f; }
    .subtitle { font:14px Inter,Arial,sans-serif;fill:#57606a; }
    .section { font:600 18px Inter,Arial,sans-serif;fill:#24292f; }
    .small { font:11px Inter,Arial,sans-serif;fill:#57606a; }
    .table-head { font:600 12px Inter,Arial,sans-serif;fill:#57606a;letter-spacing:.5px; }
    .table-text { font:14px Inter,Arial,sans-serif;fill:#24292f; }
    .table-name { font-weight:600;fill:#0969da; }.good { fill:#1a7f37; }
    .warn { fill:#9a6700; }.bad { fill:#cf222e; }.line { stroke:#d0d7de;stroke-width:1; }
  </style>
  <rect class="bg" width="1200" height="1610"/>
  <g transform="translate(24,24)">
    <rect width="60" height="60" fill="#000"/>
    <g transform="scale(0.035)"><path fill="#fff" d="M1036.26,1002.28h237.87l-.93,19.09c-8.38,110.32-49.81,198.3-123.82,262.07-73.09,63.31-170.84,95.43-290.48,95.43-130.81,0-235.55-44.69-311.43-133.6-74.48-87.98-112.65-209.48-112.65-361.23v-60.51c0-96.83,17.7-183.41,51.68-257.43,34.91-74.95,85.19-133.61,149.89-173.63,64.7-40.04,140.12-60.52,225.3-60.52,117.77,0,214.13,32.12,286.29,95.9,72.62,63.3,114.98,153.61,126.15,267.67l1.86,19.08h-238.34l-.93-15.83c-4.65-59.11-20.95-101.94-47.95-127.08-27-25.6-69.83-38.17-127.08-38.17-61.91,0-107.06,20.95-137.33,65.17-31.65,45.15-47.94,117.77-48.87,215.53v74.48c0,102.41,15.36,177.83,45.62,223.91,28.86,44.22,74.01,65.63,137.79,65.63,58.19,0,101.48-12.57,128.95-38.17,26.99-25.14,43.29-66.1,47.48-121.5l.93-16.3Z"/></g>
  </g>
  <text class="title" x="100" y="55">DAX Sandbox Benchmarks</text>
  <text class="subtitle" x="100" y="78">Build and typecheck workload performance across sandbox providers</text>
  <text class="section" x="24" y="136">Detailed Metrics</text>
  <line class="line" x1="0" y1="150" x2="1200" y2="150"/>
  <rect class="table-header-bg" x="0" y="172" width="1200" height="42"/>
  <text class="table-head" x="40" y="198">PROVIDER</text>
  <text class="table-head" x="220" y="198">PHASES</text>
  <text class="table-head" x="300" y="198">SUCCESS</text>
  <text class="table-head" x="390" y="198">TOTAL (MED)</text>
  <text class="table-head" x="530" y="198">PREPARE</text>
  <text class="table-head" x="640" y="198">BUN DL</text>
  <text class="table-head" x="735" y="198">BUN UNPACK</text>
  <text class="table-head" x="850" y="198">CLONE</text>
  <text class="table-head" x="940" y="198">INSTALL</text>
  <text class="table-head" x="1050" y="198">TYPECHECK</text>
  <line class="line" x1="24" y1="256" x2="1176" y2="256"/>
  <text class="table-text table-name" x="40" y="241">Isorun</text>
  <text class="table-text" x="220" y="241">7/7</text>
  <text class="table-text good" x="300" y="241">100%</text>
  <text class="table-text " x="390" y="241">34.52s</text>
  <text class="table-text" x="530" y="241">1.23s</text>
  <text class="table-text" x="640" y="241">0.13s</text>
  <text class="table-text" x="735" y="241">0.47s</text>
  <text class="table-text" x="850" y="241">1.13s</text>
  <text class="table-text" x="940" y="241">9.53s</text>
  <text class="table-text" x="1050" y="241">18.89s</text>
  <line class="line" x1="24" y1="298" x2="1176" y2="298"/>
  <text class="table-text table-name" x="40" y="283">Namespace</text>
  <text class="table-text" x="220" y="283">7/7</text>
  <text class="table-text good" x="300" y="283">100%</text>
  <text class="table-text " x="390" y="283">40.10s</text>
  <text class="table-text" x="530" y="283">4.43s</text>
  <text class="table-text" x="640" y="283">0.24s</text>
  <text class="table-text" x="735" y="283">0.42s</text>
  <text class="table-text" x="850" y="283">1.01s</text>
  <text class="table-text" x="940" y="283">8.55s</text>
  <text class="table-text" x="1050" y="283">19.88s</text>
  <line class="line" x1="24" y1="340" x2="1176" y2="340"/>
  <text class="table-text table-name" x="40" y="325">Gravixlayer</text>
  <text class="table-text" x="220" y="325">7/7</text>
  <text class="table-text good" x="300" y="325">100%</text>
  <text class="table-text " x="390" y="325">41.70s</text>
  <text class="table-text" x="530" y="325">3.67s</text>
  <text class="table-text" x="640" y="325">1.42s</text>
  <text class="table-text" x="735" y="325">0.63s</text>
  <text class="table-text" x="850" y="325">3.67s</text>
  <text class="table-text" x="940" y="325">12.18s</text>
  <text class="table-text" x="1050" y="325">16.38s</text>
  <line class="line" x1="24" y1="382" x2="1176" y2="382"/>
  <text class="table-text table-name" x="40" y="367">Givemeanode</text>
  <text class="table-text" x="220" y="367">7/7</text>
  <text class="table-text good" x="300" y="367">100%</text>
  <text class="table-text " x="390" y="367">41.72s</text>
  <text class="table-text" x="530" y="367">1.30s</text>
  <text class="table-text" x="640" y="367">0.70s</text>
  <text class="table-text" x="735" y="367">0.55s</text>
  <text class="table-text" x="850" y="367">1.63s</text>
  <text class="table-text" x="940" y="367">11.23s</text>
  <text class="table-text" x="1050" y="367">24.21s</text>
  <line class="line" x1="24" y1="424" x2="1176" y2="424"/>
  <text class="table-text table-name" x="40" y="409">Blaxel</text>
  <text class="table-text" x="220" y="409">7/7</text>
  <text class="table-text good" x="300" y="409">100%</text>
  <text class="table-text " x="390" y="409">45.94s</text>
  <text class="table-text" x="530" y="409">1.26s</text>
  <text class="table-text" x="640" y="409">0.41s</text>
  <text class="table-text" x="735" y="409">0.47s</text>
  <text class="table-text" x="850" y="409">1.44s</text>
  <text class="table-text" x="940" y="409">9.89s</text>
  <text class="table-text" x="1050" y="409">25.33s</text>
  <line class="line" x1="24" y1="466" x2="1176" y2="466"/>
  <text class="table-text table-name" x="40" y="451">Beam</text>
  <text class="table-text" x="220" y="451">7/7</text>
  <text class="table-text good" x="300" y="451">100%</text>
  <text class="table-text " x="390" y="451">51.68s</text>
  <text class="table-text" x="530" y="451">2.85s</text>
  <text class="table-text" x="640" y="451">0.34s</text>
  <text class="table-text" x="735" y="451">0.63s</text>
  <text class="table-text" x="850" y="451">2.19s</text>
  <text class="table-text" x="940" y="451">11.89s</text>
  <text class="table-text" x="1050" y="451">27.34s</text>
  <line class="line" x1="24" y1="508" x2="1176" y2="508"/>
  <text class="table-text table-name" x="40" y="493">Createos</text>
  <text class="table-text" x="220" y="493">7/7</text>
  <text class="table-text good" x="300" y="493">100%</text>
  <text class="table-text " x="390" y="493">52.83s</text>
  <text class="table-text" x="530" y="493">3.13s</text>
  <text class="table-text" x="640" y="493">0.54s</text>
  <text class="table-text" x="735" y="493">0.47s</text>
  <text class="table-text" x="850" y="493">2.09s</text>
  <text class="table-text" x="940" y="493">11.48s</text>
  <text class="table-text" x="1050" y="493">27.20s</text>
  <line class="line" x1="24" y1="550" x2="1176" y2="550"/>
  <text class="table-text table-name" x="40" y="535">Upstash</text>
  <text class="table-text" x="220" y="535">7/7</text>
  <text class="table-text good" x="300" y="535">100%</text>
  <text class="table-text " x="390" y="535">54.67s</text>
  <text class="table-text" x="530" y="535">4.35s</text>
  <text class="table-text" x="640" y="535">0.33s</text>
  <text class="table-text" x="735" y="535">0.62s</text>
  <text class="table-text" x="850" y="535">1.89s</text>
  <text class="table-text" x="940" y="535">10.01s</text>
  <text class="table-text" x="1050" y="535">27.10s</text>
  <line class="line" x1="24" y1="592" x2="1176" y2="592"/>
  <text class="table-text table-name" x="40" y="577">Tensorlake</text>
  <text class="table-text" x="220" y="577">7/7</text>
  <text class="table-text good" x="300" y="577">100%</text>
  <text class="table-text " x="390" y="577">59.30s</text>
  <text class="table-text" x="530" y="577">11.62s</text>
  <text class="table-text" x="640" y="577">0.56s</text>
  <text class="table-text" x="735" y="577">0.53s</text>
  <text class="table-text" x="850" y="577">1.35s</text>
  <text class="table-text" x="940" y="577">10.20s</text>
  <text class="table-text" x="1050" y="577">30.78s</text>
  <line class="line" x1="24" y1="634" x2="1176" y2="634"/>
  <text class="table-text table-name" x="40" y="619">Mosaic</text>
  <text class="table-text" x="220" y="619">7/7</text>
  <text class="table-text good" x="300" y="619">100%</text>
  <text class="table-text " x="390" y="619">59.37s</text>
  <text class="table-text" x="530" y="619">1.20s</text>
  <text class="table-text" x="640" y="619">0.27s</text>
  <text class="table-text" x="735" y="619">0.60s</text>
  <text class="table-text" x="850" y="619">2.93s</text>
  <text class="table-text" x="940" y="619">13.89s</text>
  <text class="table-text" x="1050" y="619">29.67s</text>
  <line class="line" x1="24" y1="676" x2="1176" y2="676"/>
  <text class="table-text table-name" x="40" y="661">Arker</text>
  <text class="table-text" x="220" y="661">7/7</text>
  <text class="table-text good" x="300" y="661">100%</text>
  <text class="table-text " x="390" y="661">64.18s</text>
  <text class="table-text" x="530" y="661">4.99s</text>
  <text class="table-text" x="640" y="661">0.34s</text>
  <text class="table-text" x="735" y="661">0.62s</text>
  <text class="table-text" x="850" y="661">2.00s</text>
  <text class="table-text" x="940" y="661">11.81s</text>
  <text class="table-text" x="1050" y="661">40.60s</text>
  <line class="line" x1="24" y1="718" x2="1176" y2="718"/>
  <text class="table-text table-name" x="40" y="703">Sandbox0</text>
  <text class="table-text" x="220" y="703">7/7</text>
  <text class="table-text good" x="300" y="703">100%</text>
  <text class="table-text " x="390" y="703">65.71s</text>
  <text class="table-text" x="530" y="703">3.22s</text>
  <text class="table-text" x="640" y="703">0.38s</text>
  <text class="table-text" x="735" y="703">0.61s</text>
  <text class="table-text" x="850" y="703">1.90s</text>
  <text class="table-text" x="940" y="703">21.20s</text>
  <text class="table-text" x="1050" y="703">35.02s</text>
  <line class="line" x1="24" y1="760" x2="1176" y2="760"/>
  <text class="table-text table-name" x="40" y="745">Daytona</text>
  <text class="table-text" x="220" y="745">7/7</text>
  <text class="table-text good" x="300" y="745">100%</text>
  <text class="table-text " x="390" y="745">70.04s</text>
  <text class="table-text" x="530" y="745">5.50s</text>
  <text class="table-text" x="640" y="745">0.21s</text>
  <text class="table-text" x="735" y="745">0.56s</text>
  <text class="table-text" x="850" y="745">1.73s</text>
  <text class="table-text" x="940" y="745">12.95s</text>
  <text class="table-text" x="1050" y="745">36.03s</text>
  <line class="line" x1="24" y1="802" x2="1176" y2="802"/>
  <text class="table-text table-name" x="40" y="787">E2B</text>
  <text class="table-text" x="220" y="787">7/7</text>
  <text class="table-text good" x="300" y="787">100%</text>
  <text class="table-text " x="390" y="787">72.74s</text>
  <text class="table-text" x="530" y="787">8.61s</text>
  <text class="table-text" x="640" y="787">0.83s</text>
  <text class="table-text" x="735" y="787">0.60s</text>
  <text class="table-text" x="850" y="787">4.89s</text>
  <text class="table-text" x="940" y="787">16.29s</text>
  <text class="table-text" x="1050" y="787">34.16s</text>
  <line class="line" x1="24" y1="844" x2="1176" y2="844"/>
  <text class="table-text table-name" x="40" y="829">Vercel</text>
  <text class="table-text" x="220" y="829">7/7</text>
  <text class="table-text good" x="300" y="829">100%</text>
  <text class="table-text " x="390" y="829">80.01s</text>
  <text class="table-text" x="530" y="829">13.98s</text>
  <text class="table-text" x="640" y="829">0.37s</text>
  <text class="table-text" x="735" y="829">0.72s</text>
  <text class="table-text" x="850" y="829">1.87s</text>
  <text class="table-text" x="940" y="829">13.45s</text>
  <text class="table-text" x="1050" y="829">42.81s</text>
  <line class="line" x1="24" y1="886" x2="1176" y2="886"/>
  <text class="table-text table-name" x="40" y="871">Tenki</text>
  <text class="table-text" x="220" y="871">7/7</text>
  <text class="table-text good" x="300" y="871">100%</text>
  <text class="table-text " x="390" y="871">80.33s</text>
  <text class="table-text" x="530" y="871">5.93s</text>
  <text class="table-text" x="640" y="871">0.57s</text>
  <text class="table-text" x="735" y="871">0.70s</text>
  <text class="table-text" x="850" y="871">3.48s</text>
  <text class="table-text" x="940" y="871">19.97s</text>
  <text class="table-text" x="1050" y="871">39.09s</text>
  <line class="line" x1="24" y1="928" x2="1176" y2="928"/>
  <text class="table-text table-name" x="40" y="913">Sail</text>
  <text class="table-text" x="220" y="913">7/7</text>
  <text class="table-text good" x="300" y="913">100%</text>
  <text class="table-text " x="390" y="913">102.53s</text>
  <text class="table-text" x="530" y="913">5.10s</text>
  <text class="table-text" x="640" y="913">1.34s</text>
  <text class="table-text" x="735" y="913">0.76s</text>
  <text class="table-text" x="850" y="913">3.97s</text>
  <text class="table-text" x="940" y="913">18.62s</text>
  <text class="table-text" x="1050" y="913">59.96s</text>
  <line class="line" x1="24" y1="970" x2="1176" y2="970"/>
  <text class="table-text table-name" x="40" y="955">Modal</text>
  <text class="table-text" x="220" y="955">7/7</text>
  <text class="table-text good" x="300" y="955">100%</text>
  <text class="table-text " x="390" y="955">105.13s</text>
  <text class="table-text" x="530" y="955">3.35s</text>
  <text class="table-text" x="640" y="955">0.42s</text>
  <text class="table-text" x="735" y="955">0.71s</text>
  <text class="table-text" x="850" y="955">3.42s</text>
  <text class="table-text" x="940" y="955">25.28s</text>
  <text class="table-text" x="1050" y="955">64.67s</text>
  <line class="line" x1="24" y1="1012" x2="1176" y2="1012"/>
  <text class="table-text table-name" x="40" y="997">Superserve</text>
  <text class="table-text" x="220" y="997">7/7</text>
  <text class="table-text good" x="300" y="997">100%</text>
  <text class="table-text " x="390" y="997">112.77s</text>
  <text class="table-text" x="530" y="997">12.85s</text>
  <text class="table-text" x="640" y="997">0.47s</text>
  <text class="table-text" x="735" y="997">1.15s</text>
  <text class="table-text" x="850" y="997">6.15s</text>
  <text class="table-text" x="940" y="997">21.26s</text>
  <text class="table-text" x="1050" y="997">66.65s</text>
  <line class="line" x1="24" y1="1054" x2="1176" y2="1054"/>
  <text class="table-text table-name" x="40" y="1039">Declaw</text>
  <text class="table-text" x="220" y="1039">7/7</text>
  <text class="table-text good" x="300" y="1039">100%</text>
  <text class="table-text " x="390" y="1039">218.02s</text>
  <text class="table-text" x="530" y="1039">5.67s</text>
  <text class="table-text" x="640" y="1039">0.71s</text>
  <text class="table-text" x="735" y="1039">0.78s</text>
  <text class="table-text" x="850" y="1039">5.32s</text>
  <text class="table-text" x="940" y="1039">28.40s</text>
  <text class="table-text" x="1050" y="1039">163.12s</text>
  <line class="line" x1="24" y1="1096" x2="1176" y2="1096"/>
  <text class="table-text table-name" x="40" y="1081">Freestyle</text>
  <text class="table-text" x="220" y="1081">6/7</text>
  <text class="table-text bad" x="300" y="1081">0%</text>
  <text class="table-text bad" x="390" y="1081">Failed</text>
  <text class="table-text" x="530" y="1081">—</text>
  <text class="table-text" x="640" y="1081">—</text>
  <text class="table-text" x="735" y="1081">—</text>
  <text class="table-text" x="850" y="1081">—</text>
  <text class="table-text" x="940" y="1081">—</text>
  <text class="table-text" x="1050" y="1081">—</text>
  <line class="line" x1="24" y1="1138" x2="1176" y2="1138"/>
  <text class="table-text table-name" x="40" y="1123">Miosa</text>
  <text class="table-text" x="220" y="1123">5/7</text>
  <text class="table-text bad" x="300" y="1123">0%</text>
  <text class="table-text bad" x="390" y="1123">Failed</text>
  <text class="table-text" x="530" y="1123">—</text>
  <text class="table-text" x="640" y="1123">—</text>
  <text class="table-text" x="735" y="1123">—</text>
  <text class="table-text" x="850" y="1123">—</text>
  <text class="table-text" x="940" y="1123">—</text>
  <text class="table-text" x="1050" y="1123">—</text>
  <line class="line" x1="24" y1="1180" x2="1176" y2="1180"/>
  <text class="table-text table-name" x="40" y="1165">Cloud Run</text>
  <text class="table-text" x="220" y="1165">2/7</text>
  <text class="table-text bad" x="300" y="1165">0%</text>
  <text class="table-text bad" x="390" y="1165">Failed</text>
  <text class="table-text" x="530" y="1165">—</text>
  <text class="table-text" x="640" y="1165">—</text>
  <text class="table-text" x="735" y="1165">—</text>
  <text class="table-text" x="850" y="1165">—</text>
  <text class="table-text" x="940" y="1165">—</text>
  <text class="table-text" x="1050" y="1165">—</text>
  <line class="line" x1="24" y1="1222" x2="1176" y2="1222"/>
  <text class="table-text table-name" x="40" y="1207">Archil</text>
  <text class="table-text" x="220" y="1207">0/7</text>
  <text class="table-text bad" x="300" y="1207">0%</text>
  <text class="table-text bad" x="390" y="1207">Failed</text>
  <text class="table-text" x="530" y="1207">—</text>
  <text class="table-text" x="640" y="1207">—</text>
  <text class="table-text" x="735" y="1207">—</text>
  <text class="table-text" x="850" y="1207">—</text>
  <text class="table-text" x="940" y="1207">—</text>
  <text class="table-text" x="1050" y="1207">—</text>
  <line class="line" x1="24" y1="1264" x2="1176" y2="1264"/>
  <text class="table-text table-name" x="40" y="1249">Buddy</text>
  <text class="table-text" x="220" y="1249">0/7</text>
  <text class="table-text bad" x="300" y="1249">0%</text>
  <text class="table-text bad" x="390" y="1249">Failed</text>
  <text class="table-text" x="530" y="1249">—</text>
  <text class="table-text" x="640" y="1249">—</text>
  <text class="table-text" x="735" y="1249">—</text>
  <text class="table-text" x="850" y="1249">—</text>
  <text class="table-text" x="940" y="1249">—</text>
  <text class="table-text" x="1050" y="1249">—</text>
  <line class="line" x1="24" y1="1306" x2="1176" y2="1306"/>
  <text class="table-text table-name" x="40" y="1291">Cloudflare</text>
  <text class="table-text" x="220" y="1291">0/7</text>
  <text class="table-text bad" x="300" y="1291">0%</text>
  <text class="table-text bad" x="390" y="1291">Failed</text>
  <text class="table-text" x="530" y="1291">—</text>
  <text class="table-text" x="640" y="1291">—</text>
  <text class="table-text" x="735" y="1291">—</text>
  <text class="table-text" x="850" y="1291">—</text>
  <text class="table-text" x="940" y="1291">—</text>
  <text class="table-text" x="1050" y="1291">—</text>
  <line class="line" x1="24" y1="1348" x2="1176" y2="1348"/>
  <text class="table-text table-name" x="40" y="1333">Codesandbox</text>
  <text class="table-text" x="220" y="1333">0/7</text>
  <text class="table-text bad" x="300" y="1333">0%</text>
  <text class="table-text bad" x="390" y="1333">Failed</text>
  <text class="table-text" x="530" y="1333">—</text>
  <text class="table-text" x="640" y="1333">—</text>
  <text class="table-text" x="735" y="1333">—</text>
  <text class="table-text" x="850" y="1333">—</text>
  <text class="table-text" x="940" y="1333">—</text>
  <text class="table-text" x="1050" y="1333">—</text>
  <line class="line" x1="24" y1="1390" x2="1176" y2="1390"/>
  <text class="table-text table-name" x="40" y="1375">Hopx</text>
  <text class="table-text" x="220" y="1375">0/7</text>
  <text class="table-text bad" x="300" y="1375">0%</text>
  <text class="table-text bad" x="390" y="1375">Failed</text>
  <text class="table-text" x="530" y="1375">—</text>
  <text class="table-text" x="640" y="1375">—</text>
  <text class="table-text" x="735" y="1375">—</text>
  <text class="table-text" x="850" y="1375">—</text>
  <text class="table-text" x="940" y="1375">—</text>
  <text class="table-text" x="1050" y="1375">—</text>
  <line class="line" x1="24" y1="1432" x2="1176" y2="1432"/>
  <text class="table-text table-name" x="40" y="1417">Microsandbox</text>
  <text class="table-text" x="220" y="1417">0/7</text>
  <text class="table-text bad" x="300" y="1417">0%</text>
  <text class="table-text bad" x="390" y="1417">Failed</text>
  <text class="table-text" x="530" y="1417">—</text>
  <text class="table-text" x="640" y="1417">—</text>
  <text class="table-text" x="735" y="1417">—</text>
  <text class="table-text" x="850" y="1417">—</text>
  <text class="table-text" x="940" y="1417">—</text>
  <text class="table-text" x="1050" y="1417">—</text>
  <line class="line" x1="24" y1="1474" x2="1176" y2="1474"/>
  <text class="table-text table-name" x="40" y="1459">Northflank</text>
  <text class="table-text" x="220" y="1459">0/7</text>
  <text class="table-text bad" x="300" y="1459">0%</text>
  <text class="table-text bad" x="390" y="1459">Failed</text>
  <text class="table-text" x="530" y="1459">—</text>
  <text class="table-text" x="640" y="1459">—</text>
  <text class="table-text" x="735" y="1459">—</text>
  <text class="table-text" x="850" y="1459">—</text>
  <text class="table-text" x="940" y="1459">—</text>
  <text class="table-text" x="1050" y="1459">—</text>
  <line class="line" x1="24" y1="1516" x2="1176" y2="1516"/>
  <text class="table-text table-name" x="40" y="1501">Opencomputer</text>
  <text class="table-text" x="220" y="1501">0/7</text>
  <text class="table-text bad" x="300" y="1501">0%</text>
  <text class="table-text bad" x="390" y="1501">Failed</text>
  <text class="table-text" x="530" y="1501">—</text>
  <text class="table-text" x="640" y="1501">—</text>
  <text class="table-text" x="735" y="1501">—</text>
  <text class="table-text" x="850" y="1501">—</text>
  <text class="table-text" x="940" y="1501">—</text>
  <text class="table-text" x="1050" y="1501">—</text>
  <line class="line" x1="24" y1="1558" x2="1176" y2="1558"/>
  <text class="table-text table-name" x="40" y="1543">Run Cloud</text>
  <text class="table-text" x="220" y="1543">0/7</text>
  <text class="table-text bad" x="300" y="1543">0%</text>
  <text class="table-text bad" x="390" y="1543">Failed</text>
  <text class="table-text" x="530" y="1543">—</text>
  <text class="table-text" x="640" y="1543">—</text>
  <text class="table-text" x="735" y="1543">—</text>
  <text class="table-text" x="850" y="1543">—</text>
  <text class="table-text" x="940" y="1543">—</text>
  <text class="table-text" x="1050" y="1543">—</text>
  <text class="small" x="24" y="1592">DAX phases: prepare, Bun download, Bun unpack, clone, install, and typecheck. Lower duration is better.</text>
</svg>
