<svg xmlns="http://www.w3.org/2000/svg" xmlns:xlink="http://www.w3.org/1999/xlink" width="1200" height="2212" viewBox="0 0 1200 2212">
  <defs>
    <linearGradient id="headerGrad" x1="0%" y1="0%" x2="100%" y2="100%">
      <stop offset="0%" style="stop-color:#f6f8fa;stop-opacity:1" />
      <stop offset="100%" style="stop-color:#ffffff;stop-opacity:1" />
    </linearGradient>
  </defs>
  <style>
    .bg { fill: #ffffff; }
    .header-bg { fill: url(#headerGrad); }
    .table-header-bg { fill: #f6f8fa; }
    .table-header { font: 600 12px 'Inter', 'SF Pro Display', -apple-system, BlinkMacSystemFont, 'Segoe UI', Roboto, Helvetica, Arial, sans-serif; fill: #57606a; text-transform: uppercase; letter-spacing: 0.5px; }
    .row { font: 14px 'Inter', 'SF Pro Display', -apple-system, BlinkMacSystemFont, 'Segoe UI', Roboto, Helvetica, Arial, sans-serif; fill: #24292f; }
    .rank { font-weight: 700; fill: #57606a; }
    .rank-1 { fill: #d4a000; }
    .rank-2 { fill: #8a8a8a; }
    .rank-3 { fill: #a0522d; }
    .provider { font-weight: 600; fill: #0969da; }
    .median { font-weight: 700; font-size: 15px; }
    .fast { fill: #1a7f37; }
    .medium { fill: #9a6700; }
    .slow { fill: #cf222e; }
    .status { fill: #57606a; }
    .divider { stroke: #d0d7de; stroke-width: 1; }
    .border { stroke: #d0d7de; stroke-width: 1; fill: none; }
    .timestamp { font: 11px 'Inter', 'SF Pro Display', -apple-system, BlinkMacSystemFont, 'Segoe UI', Roboto, Helvetica, Arial, sans-serif; fill: #57606a; }
    .title { font: bold 28px 'Inter', 'SF Pro Display', -apple-system, BlinkMacSystemFont, 'Segoe UI', Roboto, Helvetica, Arial, sans-serif; fill: #24292f; }
    .subtitle { font: 14px 'Inter', 'SF Pro Display', -apple-system, BlinkMacSystemFont, 'Segoe UI', Roboto, Helvetica, Arial, sans-serif; fill: #57606a; }
    .logo { fill: #24292f; }
    .metrics-label { font: 600 12px 'Inter', 'SF Pro Display', -apple-system, BlinkMacSystemFont, 'Segoe UI', Roboto, Helvetica, Arial, sans-serif; fill: #57606a; text-transform: uppercase; letter-spacing: 0.5px; }
    .metrics-row { font: 13px 'Inter', 'SF Pro Display', -apple-system, BlinkMacSystemFont, 'Segoe UI', Roboto, Helvetica, Arial, sans-serif; fill: #24292f; }
  </style>

  <!-- Background -->
  <rect class="bg" width="1200" height="2212"/>

  <!-- Logo (black square with white C) -->
  <g transform="translate(24, 24)">
    <rect width="60" height="60" fill="#000000"/>
    <g transform="scale(0.035) translate(0, 0)">
      <path fill="#ffffff" d="M1036.26,1002.28h237.87l-.93,19.09c-8.38,110.32-49.81,198.3-123.82,262.07-73.09,63.31-170.84,95.43-290.48,95.43-130.81,0-235.55-44.69-311.43-133.6-74.48-87.98-112.65-209.48-112.65-361.23v-60.51c0-96.83,17.7-183.41,51.68-257.43,34.91-74.95,85.19-133.61,149.89-173.63,64.7-40.04,140.12-60.52,225.3-60.52,117.77,0,214.13,32.12,286.29,95.9,72.62,63.3,114.98,153.61,126.15,267.67l1.86,19.08h-238.34l-.93-15.83c-4.65-59.11-20.95-101.94-47.95-127.08-27-25.6-69.83-38.17-127.08-38.17-61.91,0-107.06,20.95-137.33,65.17-31.65,45.15-47.94,117.77-48.87,215.53v74.48c0,102.41,15.36,177.83,45.62,223.91,28.86,44.22,74.01,65.63,137.79,65.63,58.19,0,101.48-12.57,128.95-38.17,26.99-25.14,43.29-66.1,47.48-121.5l.93-16.3Z"/>
    </g>
  </g>

  <!-- Title -->
  <text class="title" x="100" y="55">Burst Concurrency Benchmarks</text>
  <text class="subtitle" x="100" y="78">Sandbox TTI under simultaneous burst load</text>
  <!-- Table header background -->
  <rect class="table-header-bg" y="134" width="1200" height="44"/>

  <!-- Table header text -->
  <text class="table-header" x="40" y="162">#</text>
  <text class="table-header" x="80" y="162">Provider</text>
  <text class="table-header" x="280" y="162">Score</text>
  <text class="table-header" x="420" y="162">Median TTI</text>
  <text class="table-header" x="600" y="162">P95</text>
  <text class="table-header" x="780" y="162">P99</text>
  <text class="table-header" x="960" y="162">Status</text>

  <!-- Row 1 -->
  <text class="rank rank-1" x="40" y="208">1</text>
  <text class="row provider" x="80" y="208">Isorun</text>
  <text class="row median" x="280" y="208">99.7</text>
  <text class="row median fast" x="420" y="208">0.03s</text>
  <text class="row" x="600" y="208">0.04s</text>
  <text class="row" x="780" y="208">0.04s</text>
  <text class="row status" x="960" y="208">100/100</text>
  <line class="divider" x1="24" y1="222" x2="1176" y2="222"/>

  <!-- Row 2 -->
  <text class="rank rank-2" x="40" y="252">2</text>
  <text class="row provider" x="80" y="252">Createos</text>
  <text class="row median" x="280" y="252">98.3</text>
  <text class="row median fast" x="420" y="252">0.15s</text>
  <text class="row" x="600" y="252">0.19s</text>
  <text class="row" x="780" y="252">0.20s</text>
  <text class="row status" x="960" y="252">100/100</text>
  <line class="divider" x1="24" y1="266" x2="1176" y2="266"/>

  <!-- Row 3 -->
  <text class="rank rank-3" x="40" y="296">3</text>
  <text class="row provider" x="80" y="296">Arker</text>
  <text class="row median" x="280" y="296">97.7</text>
  <text class="row median fast" x="420" y="296">0.22s</text>
  <text class="row" x="600" y="296">0.24s</text>
  <text class="row" x="780" y="296">0.25s</text>
  <text class="row status" x="960" y="296">100/100</text>
  <line class="divider" x1="24" y1="310" x2="1176" y2="310"/>

  <!-- Row 4 -->
  <text class="rank" x="40" y="340">4</text>
  <text class="row provider" x="80" y="340">Givemeanode</text>
  <text class="row median" x="280" y="340">96.0</text>
  <text class="row median fast" x="420" y="340">0.34s</text>
  <text class="row" x="600" y="340">0.49s</text>
  <text class="row" x="780" y="340">0.52s</text>
  <text class="row status" x="960" y="340">100/100</text>
  <line class="divider" x1="24" y1="354" x2="1176" y2="354"/>

  <!-- Row 5 -->
  <text class="rank" x="40" y="384">5</text>
  <text class="row provider" x="80" y="384">Daytona</text>
  <text class="row median" x="280" y="384">95.6</text>
  <text class="row median fast" x="420" y="384">0.38s</text>
  <text class="row" x="600" y="384">0.52s</text>
  <text class="row" x="780" y="384">0.54s</text>
  <text class="row status" x="960" y="384">100/100</text>
  <line class="divider" x1="24" y1="398" x2="1176" y2="398"/>

  <!-- Row 6 -->
  <text class="rank" x="40" y="428">6</text>
  <text class="row provider" x="80" y="428">Superserve</text>
  <text class="row median" x="280" y="428">95.3</text>
  <text class="row median fast" x="420" y="428">0.43s</text>
  <text class="row" x="600" y="428">0.52s</text>
  <text class="row" x="780" y="428">0.55s</text>
  <text class="row status" x="960" y="428">100/100</text>
  <line class="divider" x1="24" y1="442" x2="1176" y2="442"/>

  <!-- Row 7 -->
  <text class="rank" x="40" y="472">7</text>
  <text class="row provider" x="80" y="472">Miosa</text>
  <text class="row median" x="280" y="472">94.3</text>
  <text class="row median fast" x="420" y="472">0.55s</text>
  <text class="row" x="600" y="472">0.60s</text>
  <text class="row" x="780" y="472">0.61s</text>
  <text class="row status" x="960" y="472">100/100</text>
  <line class="divider" x1="24" y1="486" x2="1176" y2="486"/>

  <!-- Row 8 -->
  <text class="rank" x="40" y="516">8</text>
  <text class="row provider" x="80" y="516">Vercel</text>
  <text class="row median" x="280" y="516">94.2</text>
  <text class="row median fast" x="420" y="516">0.52s</text>
  <text class="row" x="600" y="516">0.63s</text>
  <text class="row" x="780" y="516">0.72s</text>
  <text class="row status" x="960" y="516">100/100</text>
  <line class="divider" x1="24" y1="530" x2="1176" y2="530"/>

  <!-- Row 9 -->
  <text class="rank" x="40" y="560">9</text>
  <text class="row provider" x="80" y="560">Blaxel</text>
  <text class="row median" x="280" y="560">94.1</text>
  <text class="row median fast" x="420" y="560">0.56s</text>
  <text class="row" x="600" y="560">0.63s</text>
  <text class="row" x="780" y="560">0.64s</text>
  <text class="row status" x="960" y="560">100/100</text>
  <line class="divider" x1="24" y1="574" x2="1176" y2="574"/>

  <!-- Row 10 -->
  <text class="rank" x="40" y="604">10</text>
  <text class="row provider" x="80" y="604">Cloudflare</text>
  <text class="row median" x="280" y="604">92.8</text>
  <text class="row median fast" x="420" y="604">0.64s</text>
  <text class="row" x="600" y="604">0.80s</text>
  <text class="row" x="780" y="604">0.90s</text>
  <text class="row status" x="960" y="604">100/100</text>
  <line class="divider" x1="24" y1="618" x2="1176" y2="618"/>

  <!-- Row 11 -->
  <text class="rank" x="40" y="648">11</text>
  <text class="row provider" x="80" y="648">Declaw</text>
  <text class="row median" x="280" y="648">91.1</text>
  <text class="row median fast" x="420" y="648">0.84s</text>
  <text class="row" x="600" y="648">0.96s</text>
  <text class="row" x="780" y="648">1.01s</text>
  <text class="row status" x="960" y="648">100/100</text>
  <line class="divider" x1="24" y1="662" x2="1176" y2="662"/>

  <!-- Row 12 -->
  <text class="rank" x="40" y="692">12</text>
  <text class="row provider" x="80" y="692">Tensorlake</text>
  <text class="row median" x="280" y="692">90.8</text>
  <text class="row median fast" x="420" y="692">0.87s</text>
  <text class="row" x="600" y="692">0.99s</text>
  <text class="row" x="780" y="692">1.00s</text>
  <text class="row status" x="960" y="692">100/100</text>
  <line class="divider" x1="24" y1="706" x2="1176" y2="706"/>

  <!-- Row 13 -->
  <text class="rank" x="40" y="736">13</text>
  <text class="row provider" x="80" y="736">Tenki</text>
  <text class="row median" x="280" y="736">90.2</text>
  <text class="row median fast" x="420" y="736">0.95s</text>
  <text class="row" x="600" y="736">1.02s</text>
  <text class="row" x="780" y="736">1.02s</text>
  <text class="row status" x="960" y="736">100/100</text>
  <line class="divider" x1="24" y1="750" x2="1176" y2="750"/>

  <!-- Row 14 -->
  <text class="rank" x="40" y="780">14</text>
  <text class="row provider" x="80" y="780">Modal</text>
  <text class="row median" x="280" y="780">90.2</text>
  <text class="row median fast" x="420" y="780">0.85s</text>
  <text class="row" x="600" y="780">1.08s</text>
  <text class="row" x="780" y="780">1.36s</text>
  <text class="row status" x="960" y="780">100/100</text>
  <line class="divider" x1="24" y1="794" x2="1176" y2="794"/>

  <!-- Row 15 -->
  <text class="rank" x="40" y="824">15</text>
  <text class="row provider" x="80" y="824">Runloop</text>
  <text class="row median" x="280" y="824">88.6</text>
  <text class="row median medium" x="420" y="824">1.10s</text>
  <text class="row" x="600" y="824">1.20s</text>
  <text class="row" x="780" y="824">1.22s</text>
  <text class="row status" x="960" y="824">100/100</text>
  <line class="divider" x1="24" y1="838" x2="1176" y2="838"/>

  <!-- Row 16 -->
  <text class="rank" x="40" y="868">16</text>
  <text class="row provider" x="80" y="868">E2B</text>
  <text class="row median" x="280" y="868">86.2</text>
  <text class="row median medium" x="420" y="868">1.22s</text>
  <text class="row" x="600" y="868">1.57s</text>
  <text class="row" x="780" y="868">1.70s</text>
  <text class="row status" x="960" y="868">100/100</text>
  <line class="divider" x1="24" y1="882" x2="1176" y2="882"/>

  <!-- Row 17 -->
  <text class="rank" x="40" y="912">17</text>
  <text class="row provider" x="80" y="912">Freestyle</text>
  <text class="row median" x="280" y="912">77.3</text>
  <text class="row median medium" x="420" y="912">1.51s</text>
  <text class="row" x="600" y="912">3.39s</text>
  <text class="row" x="780" y="912">3.46s</text>
  <text class="row status" x="960" y="912">100/100</text>
  <line class="divider" x1="24" y1="926" x2="1176" y2="926"/>

  <!-- Row 18 -->
  <text class="rank" x="40" y="956">18</text>
  <text class="row provider" x="80" y="956">Sail</text>
  <text class="row median" x="280" y="956">71.2</text>
  <text class="row median slow" x="420" y="956">2.45s</text>
  <text class="row" x="600" y="956">3.48s</text>
  <text class="row" x="780" y="956">3.62s</text>
  <text class="row status" x="960" y="956">100/100</text>
  <line class="divider" x1="24" y1="970" x2="1176" y2="970"/>

  <!-- Row 19 -->
  <text class="rank" x="40" y="1000">19</text>
  <text class="row provider" x="80" y="1000">Microsandbox</text>
  <text class="row median" x="280" y="1000">71.1</text>
  <text class="row median slow" x="420" y="1000">2.51s</text>
  <text class="row" x="600" y="1000">3.42s</text>
  <text class="row" x="780" y="1000">3.55s</text>
  <text class="row status" x="960" y="1000">100/100</text>
  <line class="divider" x1="24" y1="1014" x2="1176" y2="1014"/>

  <!-- Row 20 -->
  <text class="rank" x="40" y="1044">20</text>
  <text class="row provider" x="80" y="1044">Mosaic</text>
  <text class="row median" x="280" y="1044">68.6</text>
  <text class="row median slow" x="420" y="1044">2.81s</text>
  <text class="row" x="600" y="1044">3.61s</text>
  <text class="row" x="780" y="1044">3.65s</text>
  <text class="row status" x="960" y="1044">100/100</text>
  <line class="divider" x1="24" y1="1058" x2="1176" y2="1058"/>

  <!-- Row 21 -->
  <text class="rank" x="40" y="1088">21</text>
  <text class="row provider" x="80" y="1088">Cloud-run</text>
  <text class="row median" x="280" y="1088">67.2</text>
  <text class="row median slow" x="420" y="1088">2.89s</text>
  <text class="row" x="600" y="1088">3.84s</text>
  <text class="row" x="780" y="1088">3.89s</text>
  <text class="row status" x="960" y="1088">100/100</text>
  <line class="divider" x1="24" y1="1102" x2="1176" y2="1102"/>

  <!-- Row 22 -->
  <text class="rank" x="40" y="1132">22</text>
  <text class="row provider" x="80" y="1132">Upstash</text>
  <text class="row median" x="280" y="1132">30.6</text>
  <text class="row median slow" x="420" y="1132">5.69s</text>
  <text class="row" x="600" y="1132">8.61s</text>
  <text class="row" x="780" y="1132">9.16s</text>
  <text class="row status" x="960" y="1132">100/100</text>
  <line class="divider" x1="24" y1="1146" x2="1176" y2="1146"/>

  <!-- Row 23 -->
  <text class="rank" x="40" y="1176">23</text>
  <text class="row provider" x="80" y="1176">Beam</text>
  <text class="row median" x="280" y="1176">23.1</text>
  <text class="row median slow" x="420" y="1176">7.46s</text>
  <text class="row" x="600" y="1176">8.01s</text>
  <text class="row" x="780" y="1176">8.05s</text>
  <text class="row status" x="960" y="1176">100/100</text>
  <line class="divider" x1="24" y1="1190" x2="1176" y2="1190"/>

  <!-- Row 24 -->
  <text class="rank" x="40" y="1220">24</text>
  <text class="row provider" x="80" y="1220">Sandbox0</text>
  <text class="row median" x="280" y="1220">20.5</text>
  <text class="row median slow" x="420" y="1220">4.01s</text>
  <text class="row" x="600" y="1220">12.12s</text>
  <text class="row" x="780" y="1220">12.13s</text>
  <text class="row status" x="960" y="1220">57/100</text>
  <line class="divider" x1="24" y1="1234" x2="1176" y2="1234"/>

  <!-- Row 25 -->
  <text class="rank" x="40" y="1264">25</text>
  <text class="row provider" x="80" y="1264">Codesandbox</text>
  <text class="row median" x="280" y="1264">17.9</text>
  <text class="row median slow" x="420" y="1264">7.33s</text>
  <text class="row" x="600" y="1264">9.25s</text>
  <text class="row" x="780" y="1264">10.12s</text>
  <text class="row status" x="960" y="1264">100/100</text>
  <line class="divider" x1="24" y1="1278" x2="1176" y2="1278"/>

  <!-- Row 26 -->
  <text class="rank" x="40" y="1308">26</text>
  <text class="row provider" x="80" y="1308">Archil</text>
  <text class="row median" x="280" y="1308">0.0</text>
  <text class="row median slow" x="420" y="1308">17.29s</text>
  <text class="row" x="600" y="1308">29.30s</text>
  <text class="row" x="780" y="1308">29.30s</text>
  <text class="row status" x="960" y="1308">98/100</text>
  <line class="divider" x1="24" y1="1322" x2="1176" y2="1322"/>

  <!-- Row 27 -->
  <text class="rank" x="40" y="1352">27</text>
  <text class="row provider" x="80" y="1352">Hopx</text>
  <text class="row median" x="280" y="1352">0.0</text>
  <text class="row median slow" x="420" y="1352">--</text>
  <text class="row" x="600" y="1352">--</text>
  <text class="row" x="780" y="1352">--</text>
  <text class="row status" x="960" y="1352">0/100</text>
  <line class="divider" x1="24" y1="1366" x2="1176" y2="1366"/>

  <!-- Row 28 -->
  <text class="rank" x="40" y="1396">28</text>
  <text class="row provider" x="80" y="1396">Northflank</text>
  <text class="row median" x="280" y="1396">0.0</text>
  <text class="row median slow" x="420" y="1396">--</text>
  <text class="row" x="600" y="1396">--</text>
  <text class="row" x="780" y="1396">--</text>
  <text class="row status" x="960" y="1396">0/100</text>
  <line class="divider" x1="24" y1="1410" x2="1176" y2="1410"/>

  <!-- Row 29 -->
  <text class="rank" x="40" y="1440">29</text>
  <text class="row provider" x="80" y="1440">OpenComputer</text>
  <text class="row median" x="280" y="1440">0.0</text>
  <text class="row median slow" x="420" y="1440">--</text>
  <text class="row" x="600" y="1440">--</text>
  <text class="row" x="780" y="1440">--</text>
  <text class="row status" x="960" y="1440">0/100</text>
  <line class="divider" x1="24" y1="1454" x2="1176" y2="1454"/>

  <!-- Row 30 -->
  <text class="rank" x="40" y="1484">30</text>
  <text class="row provider" x="80" y="1484">Run-cloud</text>
  <text class="row median" x="280" y="1484">0.0</text>
  <text class="row median slow" x="420" y="1484">16.24s</text>
  <text class="row" x="600" y="1484">44.57s</text>
  <text class="row" x="780" y="1484">56.95s</text>
  <text class="row status" x="960" y="1484">99/100</text>

  <text class="metrics-label" x="24" y="1518">BURST METRICS</text>
  <text class="metrics-row" x="34" y="1538">Isorun: 100 sandboxes | Wall clock: 0.05s | First ready: 0.02s</text>
  <text class="metrics-row" x="34" y="1558">Createos: 100 sandboxes | Wall clock: 0.29s | First ready: 0.11s</text>
  <text class="metrics-row" x="34" y="1578">Arker: 100 sandboxes | Wall clock: 0.26s | First ready: 0.14s</text>
  <text class="metrics-row" x="34" y="1598">Givemeanode: 100 sandboxes | Wall clock: 0.58s | First ready: 0.19s</text>
  <text class="metrics-row" x="34" y="1618">Daytona: 100 sandboxes | Wall clock: 0.70s | First ready: 0.24s</text>
  <text class="metrics-row" x="34" y="1638">Superserve: 100 sandboxes | Wall clock: 1.57s | First ready: 0.29s</text>
  <text class="metrics-row" x="34" y="1658">Miosa: 100 sandboxes | Wall clock: 0.62s | First ready: 0.38s</text>
  <text class="metrics-row" x="34" y="1678">Vercel: 100 sandboxes | Wall clock: 0.94s | First ready: 0.38s</text>
  <text class="metrics-row" x="34" y="1698">Blaxel: 100 sandboxes | Wall clock: 0.67s | First ready: 0.35s</text>
  <text class="metrics-row" x="34" y="1718">Cloudflare: 100 sandboxes | Wall clock: 1.23s | First ready: 0.42s</text>
  <text class="metrics-row" x="34" y="1738">Declaw: 100 sandboxes | Wall clock: 1.04s | First ready: 0.58s</text>
  <text class="metrics-row" x="34" y="1758">Tensorlake: 100 sandboxes | Wall clock: 1.11s | First ready: 0.67s</text>
  <text class="metrics-row" x="34" y="1778">Tenki: 100 sandboxes | Wall clock: 1.02s | First ready: 0.82s</text>
  <text class="metrics-row" x="34" y="1798">Modal: 100 sandboxes | Wall clock: 1.67s | First ready: 0.77s</text>
  <text class="metrics-row" x="34" y="1818">Runloop: 100 sandboxes | Wall clock: 2.71s | First ready: 0.93s</text>
  <text class="metrics-row" x="34" y="1838">E2B: 100 sandboxes | Wall clock: 2.22s | First ready: 1.02s</text>
  <text class="metrics-row" x="34" y="1858">Freestyle: 100 sandboxes | Wall clock: 3.73s | First ready: 0.92s</text>
  <text class="metrics-row" x="34" y="1878">Sail: 100 sandboxes | Wall clock: 4.15s | First ready: 1.53s</text>
  <text class="metrics-row" x="34" y="1898">Microsandbox: 100 sandboxes | Wall clock: 4.79s | First ready: 1.42s</text>
  <text class="metrics-row" x="34" y="1918">Mosaic: 100 sandboxes | Wall clock: 3.80s | First ready: 1.85s</text>
  <text class="metrics-row" x="34" y="1938">Cloud-run: 100 sandboxes | Wall clock: 4.14s | First ready: 0.38s</text>
  <text class="metrics-row" x="34" y="1958">Upstash: 100 sandboxes | Wall clock: 9.26s | First ready: 2.64s</text>
  <text class="metrics-row" x="34" y="1978">Beam: 100 sandboxes | Wall clock: 8.41s | First ready: 2.20s</text>
  <text class="metrics-row" x="34" y="1998">Sandbox0: 100 sandboxes | Wall clock: 13.94s | First ready: 2.49s</text>
  <text class="metrics-row" x="34" y="2018">Codesandbox: 100 sandboxes | Wall clock: 11.18s | First ready: 4.79s</text>
  <text class="metrics-row" x="34" y="2038">Archil: 100 sandboxes | Wall clock: 29.32s | First ready: 0.22s</text>
  <text class="metrics-row" x="34" y="2118">Run-cloud: 100 sandboxes | Wall clock: 69.11s | First ready: 4.85s</text>

  <!-- Timestamp -->
  <text class="timestamp" x="1176" y="2184" text-anchor="end">Last updated: Sep 25, 2026, 02:03 AM UTC</text>

  <!-- Footnote -->
  <text class="timestamp" x="24" y="2198">Burst mode: 100 sandboxes launched simultaneously</text>

</svg>